<?xml version="1.0" encoding="utf-8"?>
<svg viewBox="424.8999938964844 217 26.200000762939453 25.899999618530273" width="26.200000762939453" height="25.899999618530273" xmlns="http://www.w3.org/2000/svg">
  <defs>
    <style type="text/css">
	.st0{opacity:0.1;}
</style>
  </defs>
  <path d="M441.3,234.7l1.4-1.4c0.4-0.4,0.4-1,0-1.4l-6.6-6.6c-0.4-0.4-1-0.4-1.4,0l-1.4,1.4c-0.4,0.4-0.4,1,0,1.4l6.6,6.6 C440.3,235.1,440.9,235.1,441.3,234.7z" style="fill: rgb(32, 196, 163);" transform="matrix(1, 0, 0, 1, 0, -3.552713678800501e-15)"/>
  <path d="M430.3,228.5c-0.8-0.8-1.3-1.9-1.3-3.1c0-2.4,2-4.4,4.4-4.4c1.2,0,2.3,0.5,3.1,1.3l2.5,2.5c0.4,0.4,1,0.4,1.4,0l1.4-1.4 c0.4-0.4,0.4-1,0-1.4l-2.5-2.5c-1.6-1.6-3.7-2.5-6-2.5c-4.6,0-8.4,3.8-8.4,8.4c0,2.2,0.9,4.4,2.5,6l2.5,2.5c0.4,0.4,1,0.4,1.4,0 l1.4-1.4c0.4-0.4,0.4-1,0-1.4L430.3,228.5z" style="fill: rgb(32, 196, 163);" transform="matrix(1, 0, 0, 1, 0, -3.552713678800501e-15)"/>
  <path d="M448.5,228.6l-2.5-2.5c-0.4-0.4-1-0.4-1.4,0l-1.4,1.4c-0.4,0.4-0.4,1,0,1.4l2.5,2.5c0.8,0.8,1.3,1.9,1.3,3.1 c0,2.4-2,4.4-4.4,4.4c-1.2,0-2.3-0.5-3.1-1.3l-2.5-2.5c-0.4-0.4-1-0.4-1.4,0l-1.4,1.4c-0.4,0.4-0.4,1,0,1.4l2.5,2.5 c1.6,1.6,3.7,2.5,6,2.5c4.6,0,8.4-3.8,8.4-8.4C451,232.3,450.1,230.2,448.5,228.6z" style="fill: rgb(32, 196, 163);" transform="matrix(1, 0, 0, 1, 0, -3.552713678800501e-15)"/>
</svg>